<?xml version="1.0" encoding="UTF-8"?>
<svg id="Layer_1" data-name="Layer 1" xmlns="http://www.w3.org/2000/svg" viewBox="0 0 1000 984">
  <defs>
    <style>
      .cls-1 {
        fill: #7a7a7a;
      }
    </style>
  </defs>
  <path class="cls-1" d="M282.39,984h-27c-9.97-2.84-20.12-6.37-27.52-13.98-30.02-30.81-21.75-120.93-17.35-161.4,6.35-58.35,19.4-115.65,28.73-173.48-56.23-30.81-110.4-67.3-157.36-111.12C46.88,491.37,9.42,451.66.42,403c.27-3.56-.37-7.52,0-11,5.93-55.65,83.55-74.99,128.8-83.69,40.17-7.72,81.05-10.81,121.68-15.3l84.54-5.45c15.09-59.33,30.55-118.91,54.76-175.23C406.5,74.42,442.25-3.26,491.85,1.02c39.36,3.39,86.53,75.56,105.92,107.07,34.3,55.72,61.39,115.46,89.56,174.43,70.55-.14,143.52-3.47,213.17,8.81,29.35,5.18,70.29,15.2,88.64,40.35,30.14,41.33-11.14,99.34-37.85,131.81-42.36,51.48-95.48,92.7-142.81,139.25,15.06,73.39,43.57,143.16,56.53,217.09,6.97,39.78,21.72,132.78-30.24,148.12-45.21,13.35-119.02-21.39-159.44-42.42-51.24-26.66-99.33-59.08-146.33-92.46-46.83,36.26-92.1,75.23-142.7,106.35-27.08,16.66-72.39,41.39-103.9,44.58ZM865.32,400.01c-62.72.17-125.77,6.86-188.34-1.15-52.6-6.73-70.76-17.63-99.65-61.34-36.12-54.65-61.58-115.75-85.46-176.52-2.74,4.29-3.85,9.9-5.22,14.78-15.61,55.72-25.1,114.74-47.81,168.18-13.43,31.61-21.63,44.21-55.7,54.3-69.78,20.65-148.68,9.09-219.1,20.87-1.51.25-6.95.25-6.63,2.35,48.86,36.07,103.1,65.06,149.45,104.54,53.23,45.33,67.01,77.09,59.4,148.36-5.81,54.42-23.29,106.92-36.19,159.8-1.3,5.33-2.96,11.39-3.19,16.81,46.1-39.71,89.71-83.71,143.19-113.79,44.01-24.75,66.63-27.99,113.64-7.06,56.47,25.13,107.06,62.67,157.9,97.08,1.07.73,6.03,4.48,6.72,3.77-23.16-61.36-50-122.97-58.82-188.66-10.34-76.98,23.83-116.91,78.81-163.85,31.62-27,67.36-49.35,97-78.47Z"/>
</svg>