<?xml version="1.0" encoding="UTF-8"?>
<svg id="Layer_1" data-name="Layer 1" xmlns="http://www.w3.org/2000/svg" viewBox="0 0 1955 1066">
  <defs>
    <style>
      .cls-1 {
        fill: #ec008c;
      }
    </style>
  </defs>
  <path class="cls-1" d="M1024,681v31.5c0,9.1-11.96,19.83-19.72,23.28-3.31,1.47-26.58,9.22-28.78,9.22h-141.5c-3.04,21.29-.77,44.25,16.99,58.51,29.78,23.91,116.9,16,154.51,12.48,18.38-1.72,36.77-4.56,55.08-6.91,15.9,12.23,12.6,37.19.4,51.39-23.36,27.19-98.91,26.14-132.43,25.49-40.51-.79-86.54-3.21-125.54-14.46-84.18-24.29-97.94-102.36-95.04-180.04,1.33-35.79,5.05-105.69,34.56-129.44,5.25-4.23,34.1-17.02,39.98-17.02h285c2.51,5.21,2.94,13.57,2.54,19.54-2.35,34.66-34.09,41.76-62.5,47.5l-167.6.4-.8,1.2c-.6,6.91.31,13.94-.15,20.85-.83,12.65-5.49,30.11-5.05,41.99.1,2.64,1.36,5.22,4,6.08l104.6-.52c26.95-2.35,54.36-.41,81.46-1.04Z"/>
  <path class="cls-1" d="M670,548v22.5c0,13.01-13.47,26.92-23.98,33.02-2.92,1.69-23.84,11.48-25.52,11.48h-96.5v268h-69.5c-3.32,0-23.59-6.64-27.49-8.51-32.01-15.4-26.69-55.28-26.02-85,1.3-58.1.14-116.43,3.01-174.49h-137.5c-13.17-16.1-4-43.01,11.59-54.41,2.61-1.91,22.7-12.59,24.41-12.59h367.5Z"/>
  <path class="cls-1" d="M1301.01,550.99c-.61,6.07,2.61,12.53-4.75,14.76-7.92,2.39-19.48-2.49-17.02,9.52,1.35,6.57,6.86,6.46,12.54,7.46,12.37,2.17,30.14,3.94,42.68,4.32,8.65.26,17.34,1.44,15.49-10.48-1.28-8.26-12.01-6.39-12.88-9.18l2.92-10.89c2.12-2.22,12.07-1.63,15.55-1.53,15.18.44,23.64.9,35.94,10.06,22.62,16.85,39.01,45.97,59.31,65.69.14,11.25.51,22.58.25,33.84-.25,10.49-1.5,21.48-2.03,31.97-3.37,66.68-11.51,132.9-16.01,199.49l-280.92-29.64,19.46-260.32,79.27-56.73c16.45-4.05,33.35,3.57,50.2,1.69ZM1169.99,855l245.07,22.56c1.81-1.26.71-11.11.95-14.05,2.48-30.32,7.08-60.66,8.98-91.02.45-7.13,1.61-19.44,1.05-26.03-1.33-15.45-15.34-9.39-25.44-13.55-8.33-3.44-8.57-16.59-23.14-16.94s-24.01,14.94-34.94,16.06c-6.77.7-13.08-3.22-20.03-3.11-19.06.29-50.31,8.86-67.18-1.73-5.17-3.25-8.07-10.3-14.81-10.29s-11.75,7.69-18.68,9.41c-4.84,1.2-9.75-.14-13.87,1.13-3.09.96-5.59,5.9-7.66,6.42-2.39.61-7.98-3.57-10.89-3.87-6.42-.64-10.83,6.09-12.32,11.57l-7.08,113.43Z"/>
  <path class="cls-1" d="M639.8,226.3c83.62-5.84,183.07,37.74,165.93,136.93-23.1,133.7-287.98,130.41-304.61-3.86-10.32-83.33,65.36-127.96,138.67-133.08ZM652.83,265.24c-104.07,2.26-97.91,161.1,5.71,155.8,100.42-5.14,94.92-157.99-5.71-155.8Z"/>
  <path class="cls-1" d="M1404,454h-51.5c-3.47,0-18.25-10.99-21.04-13.96-10.37-11.06-8.91-27.75-16.36-40.4l-116.39-.43c-15.62,12.76-6.8,52.1-30.44,56.56-22.37,4.22-56.01-3.83-55.3-32.21.79-31.34,39.99-99.79,57.61-127.47,17.76-27.9,42.85-70.96,79.96-69.13,78.12,3.85,110.51,88.99,135.22,151.78,9.38,23.83,18.2,49.4,18.23,75.27ZM1212,358h86c.38-9.77-4.31-18.74-8.14-27.36-9.04-20.31-20.7-39.82-32.37-58.65-1.72-.12-2.46,1.55-3.31,2.69-9.36,12.55-22.67,36.9-29.72,51.28-1.76,3.58-13.82,30.75-12.46,32.04Z"/>
  <path class="cls-1" d="M845,233h60.5c4.76,0,22.24,16.78,26.01,20.99,17.56,19.55,30.01,43.47,47.96,62.67,5.01.56,19.98-15.05,23.49-19.19,14.74-17.34,25.07-40.03,38.81-58.19,4.03-5.33,5.16-7.71,12-10,10.9-3.65,29.11-3.2,40.01.45,29.85,9.97,12.3,35.42-.81,51.75-21.53,26.83-51.71,47.75-73.22,74.78l-6.69,97.31c-1.66,1.15-36.21.84-40.32.2s-16.7-6.1-20.44-8.56c-25.26-16.6-8.55-52.39-11.3-76.7-2.25-19.93-40.63-52.22-54.52-67.48-17.9-19.69-32.6-42.87-41.49-68.01Z"/>
  <path class="cls-1" d="M1459.73,228.23c11.47-2.28,42.9.77,53.65,5.89,15.74,7.5,19.08,24.38,19.66,40.34,1.07,29.14-8.84,104.63,7.96,127.04,1.12,1.49,3.56,3.77,5.09,4.91,22.87,17.11,86.14,4.36,114.42,2.6,1.89-.12,6.03-.53,7.05.92,3.04,23.11-6.68,37.18-28.57,43.56-35.57,10.37-122.8,6.73-153.72-15.26-10.51-7.47-29.88-32.86-31.28-45.72l-.05-159.06c-.4-2.82,3.45-4.75,5.79-5.21Z"/>
  <path class="cls-1" d="M261,233c30.27-.68,74.67-10.02,78.04,32.46,2.79,35.24-4.6,72.86-1.02,108.02,2.86,28.15,13.75,37.75,41.61,41.39,30.68,4.01,62.89-3.29,93.76-2.94,7.8,33.57-19.3,43.93-47.01,46.93-38.01,4.11-125.44,1.2-150.2-32.54-2.03-2.77-15.17-28.15-15.17-29.83v-163.5Z"/>
  <polygon class="cls-1" points="1696 845.98 1604.49 900.95 1525.02 799.5 1612.51 743.18 1696 845.98"/>
  <path class="cls-1" d="M1559.72,763.72c-5.33,5.33-12.23-.99-15.7-5.25-46.14-56.67,7.47-175.31-54.55-227.45-46.06-38.72-155.91-39.59-163.52,36.95l-17.7-4.43c12.78-92.78,150.61-92.92,202.26-35.56,46.14,51.22,19.48,125.43,33.17,186.83,3.46,15.5,8.76,20.38,14.69,33.31,2.05,4.46,5.49,11.45,1.35,15.59Z"/>
</svg>