<svg id="Capa_1" enable-background="new 0 0 513.029 513.029" height="512" viewBox="0 0 513.029 513.029" width="512" xmlns="http://www.w3.org/2000/svg"><path d="m148.684 65.029h220.331v-45.014c0-11.404-9.338-20.015-19.969-20.015-2.07 0-4.187.326-6.296 1.022z"/><path d="m409.015 95.029h-305c-11.046 0-20 8.954-20 20v265.329 112.671c0 11.046 8.954 20 20 20h305c11.046 0 20-8.954 20-20v-378c0-11.045-8.955-20-20-20zm-252.5 180.324h4.345c6.466-41.398 39.257-74.189 80.655-80.655v-7.516c0-8.284 6.716-15 15-15s15 6.716 15 15v7.516c41.398 6.466 74.189 39.257 80.655 80.655h4.345c8.284 0 15 6.716 15 15s-6.716 15-15 15h-200c-8.284 0-15-6.716-15-15s6.715-15 15-15zm92.817 85.524c0 8.284-6.716 15-15 15h-72c-8.284 0-15-6.716-15-15s6.716-15 15-15h72c8.284 0 15 6.716 15 15zm103.433 75h-192.5c-8.284 0-15-6.716-15-15s6.716-15 15-15h192.5c8.284 0 15 6.716 15 15s-6.716 15-15 15z"/><path d="m321.636 275.353c-6.827-29.645-33.434-51.818-65.121-51.818s-58.294 22.174-65.121 51.818z"/></svg>