<svg id="Layer_1" enable-background="new 0 0 100 100" viewBox="0 0 100 100" xmlns="http://www.w3.org/2000/svg"><g clip-rule="evenodd" fill-rule="evenodd"><path d="m9.8076916 28.0769234v-14.6153851c0-2.0169296 1.6369162-3.6538458 3.6538467-3.6538458h14.6153851c2.0169296 0 3.6538448-1.6369162 3.6538448-3.6538463s-1.6369152-3.6538462-3.6538448-3.6538462h-14.6153851c-6.0544147 0-10.9615388 4.907124-10.9615388 10.9615383v14.6153851c0 2.0169296 1.6369162 3.6538467 3.6538463 3.6538467s3.6538458-1.6369171 3.6538458-3.6538467z"/><path d="m2.4999995 71.9230804v14.6153793c0 6.0544129 4.9071241 10.9615403 10.9615388 10.9615403h14.6153851c2.0169296 0 3.6538448-1.6369171 3.6538448-3.6538467s-1.6369152-3.6538467-3.6538448-3.6538467h-14.6153851c-2.0169306 0-3.6538467-1.6369171-3.6538467-3.6538467v-14.6153795c0-2.0169373-1.6369152-3.6538467-3.6538458-3.6538467s-3.6538463 1.6369095-3.6538463 3.6538467z"/><path d="m97.5 28.0769234v-14.6153851c0-6.0544143-4.9071198-10.9615383-10.9615402-10.9615383h-14.6153794c-2.0169373 0-3.6538467 1.6369162-3.6538467 3.6538463s1.6369095 3.6538463 3.6538467 3.6538463h14.6153793c2.0169296 0 3.6538467 1.6369162 3.6538467 3.6538458v14.6153851c0 2.0169296 1.6369171 3.6538467 3.6538467 3.6538467s3.6538469-1.6369172 3.6538469-3.6538468z"/><path d="m90.1923065 71.9230804v14.6153793c0 2.0169296-1.6369171 3.6538467-3.6538467 3.6538467h-14.6153794c-2.0169373 0-3.6538467 1.6369171-3.6538467 3.6538467s1.6369095 3.6538469 3.6538467 3.6538469h14.6153793c6.0544205 0 10.9615403-4.9071274 10.9615403-10.9615402v-14.6153794c0-2.0169373-1.6369171-3.6538467-3.6538467-3.6538467s-3.6538468 1.6369095-3.6538468 3.6538467z"/><path d="m82.884613 60.8847923-65.7692261.0584869v18.287487c0 .9682693.3836651 1.8999939 1.0705738 2.5832748.6832848.6869049 1.6150055 1.0705719 2.583271 1.0705719h58.4615364c.9682693 0 1.8999939-.383667 2.5832748-1.0705719.6869049-.6832809 1.0705719-1.6150055 1.0705719-2.5832748v-18.3459739zm-65.7692279-14.5568962-10.9651914.0182572c-2.0169301.0036507-3.6501942 1.6405678-3.6501942 3.6574974.0036519 2.0169296 1.6405678 3.6538467 3.6574979 3.6501961l87.6923065-.095005c2.0169296 0 3.6501923-1.6405678 3.6501923-3.6574974-.0036545-2.0169296-1.640564-3.6501923-3.6575012-3.6501923l-10.957882.0182571v-25.5001793c0-.9682655-.383667-1.8999863-1.0705719-2.583271-.6832809-.6869087-1.6150055-1.0705738-2.5832748-1.0705738h-58.4615364c-.9682655 0-1.8999863.3836651-2.583271 1.0705738-.6869087.6832848-1.0705738 1.6150055-1.0705738 2.583271z"/></g></svg>